{"title":"San Andreas 2015 720p BluRay DTS x264 Worldwide7477","uid":12511611,"size":3288741544,"categoryP":"video","categoryS":"hd___movies","magnet":"?xt=urn:btih:e7007a8a1f84e91945df330cf32871835c271923&amp;dn=San+Andreas+2015+720p+BluRay+DTS+x264+Worldwide7477&amp;tr=udp%3A%2F%2Ftracker.leechers-paradise.org%3A6969&amp;tr=udp%3A%2F%2Fzer0day.ch%3A1337&amp;tr=udp%3A%2F%2Fopen.demonii.com%3A1337&amp;tr=udp%3A%2F%2Ftracker.coppersurfer.tk%3A6969&amp;tr=udp%3A%2F%2Fexodus.desync.com%3A6969","seeders":1,"leechers":6,"uploader":"WW7477","files":14,"time":1443568359,"description":"General\r\nUnique ID                                : 254112212219002493942180975562333307600 (0xBF2C3B5C24077264AA36DDA30FFF42D0)\r\nComplete name                            : C:UsersWorldwide7477VideosMy TorrentsSan Andreas 2015 720p BluRay DTS x264 Worldwide7477San Andreas 2015 720p BluRay DTS x264 Worldwide7477.mkv\r\nFormat                                   : Matroska\r\nFormat version                           : Version 4 / Version 2\r\nFile size                                : 3.00 GiB\r\nDuration                                 : 1h 54mn\r\nOverall bit rate mode                    : Variable\r\nOverall bit rate                         : 3 756 Kbps\r\nMovie name                               : San Andreas 2015 720p BluRay DTS x264 Worldwide7477\r\nEncoded date                             : UTC 2015-09-27 04:09:47\r\n\r\nVideo\r\nID                                       : 1\r\nFormat                                   : AVC\r\nFormat/Info                              : Advanced Video Codec\r\nFormat profile                           :   \r\nFormat settings, CABAC                   : Yes\r\nFormat settings, ReFrames                : 3 frames\r\nCodec ID                                 : V_MPEG4/ISO/AVC\r\nDuration                                 : 1h 54mn\r\nBit rate mode                            : Variable\r\nBit rate                                 : 2 999 Kbps\r\nMaximum bit rate                         : 14.0 Mbps\r\nWidth                                    : 1 280 pixels\r\nHeight                                   : 528 pixels\r\nDisplay aspect ratio                     : 2.40:1\r\nFrame rate mode                          : Constant\r\nFrame rate                               : 23.976 fps\r\nColor space                              : YUV\r\nChroma subsampling                       : 4:2:0\r\nBit depth                                : 8 bits\r\nScan type                                : Progressive\r\nBits/(Pixel*Frame)                       : 0.185\r\nStream size                              : 2.34 GiB (78%)\r\nTitle                                    : San Andreas 2015 720p BluRay DTS x264 Worldwide7477\r\n\r\nLanguage                                 : English\r\nDefault                                  : Yes\r\nForced                                   : No\r\n\r\nAudio\r\nID                                       : 2\r\nFormat                                   : DTS\r\nFormat/Info                              : Digital Theater Systems\r\nMode                                     : 16\r\nFormat settings, Endianness              : Big\r\nCodec ID                                 : A_DTS\r\nDuration                                 : 1h 54mn\r\nBit rate mode                            : Constant\r\nBit rate                                 : 755 Kbps\r\nChannel(s)                               : 6 channels\r\nChannel positions                        : Front: L C R, Side: L R, LFE\r\nSampling rate                            : 48.0 KHz\r\nBit depth                                : 24 bits\r\nCompression mode                         : Lossy\r\nStream size                              : 618 MiB (20%)\r\nTitle                                    : Worldwide7477 (DTS)\r\nLanguage                                 : English\r\nDefault                                  : Yes\r\nForced                                   : No\r\n\r\nText #1\r\nID                                       : 3\r\nFormat                                   : UTF-8\r\nCodec ID                                 : S_TEXT/UTF8\r\nCodec ID/Info                            : UTF-8 Plain Text\r\nTitle                                    : English\r\nLanguage                                 : English\r\nDefault                                  : Yes\r\nForced                                   : No\r\n\r\nText #2\r\nID                                       : 4\r\nFormat                                   : UTF-8\r\nCodec ID                                 : S_TEXT/UTF8\r\nCodec ID/Info                            : UTF-8 Plain Text\r\nTitle                                    : English-SDH\r\nLanguage                                 : English\r\nDefault                                  : No\r\nForced                                   : No\r\n\r\nText #3\r\nID                                       : 5\r\nFormat                                   : UTF-8\r\nCodec ID                                 : S_TEXT/UTF8\r\nCodec ID/Info                            : UTF-8 Plain Text\r\nTitle                                    : Spanish\r\nLanguage                                 : Spanish\r\nDefault                                  : No\r\nForced                                   : No\r\n\r\nMenu\r\n00:00:00.000                             : :Chapter 1\r\n00:05:00.000                             : :Chapter 2\r\n00:10:00.000                             : :Chapter 3\r\n00:15:00.000                             : :Chapter 4\r\n00:20:00.000                             : :Chapter 5\r\n00:25:00.000                             : :Chapter 6\r\n00:30:00.000                             : :Chapter 7\r\n00:35:00.000                             : :Chapter 8\r\n00:40:00.000                             : :Chapter 9\r\n00:45:00.000                             : :Chapter 10\r\n00:50:00.000                             : :Chapter 11\r\n00:55:00.000                             : :Chapter 12\r\n01:00:00.000                             : :Chapter 13\r\n01:05:00.000                             : :Chapter 14\r\n01:10:00.000                             : :Chapter 15\r\n01:15:00.000                             : :Chapter 16\r\n01:20:00.000                             : :Chapter 17\r\n01:25:00.000                             : :Chapter 18\r\n01:30:00.000                             : :Chapter 19\r\n01:35:00.000                             : :Chapter 20\r\n01:40:00.000                             : :Chapter 21\r\n01:45:00.000                             : :Chapter 22\r\n01:50:00.000                             : :Chapter 23","torrent":{"xt":"urn:btih:e7007a8a1f84e91945df330cf32871835c271923","amp;dn":"San+Andreas+2015+720p+BluRay+DTS+x264+Worldwide7477","amp;tr":["udp%3A%2F%2Ftracker.leechers-paradise.org%3A6969","udp%3A%2F%2Fzer0day.ch%3A1337","udp%3A%2F%2Fopen.demonii.com%3A1337","udp%3A%2F%2Ftracker.coppersurfer.tk%3A6969","udp%3A%2F%2Fexodus.desync.com%3A6969"],"infoHash":"e7007a8a1f84e91945df330cf32871835c271923","infoHashBuffer":{"type":"Buffer","data":[231,0,122,138,31,132,233,25,69,223,51,12,243,40,113,131,92,39,25,35]},"announce":[],"urlList":[]}}